<?xml version="1.0" encoding="UTF-8"?> <svg xmlns="http://www.w3.org/2000/svg" width="90" height="66" viewBox="0 0 90 66" fill="none"> <path d="M41.4798 55.2923C41.9448 55.2923 42.3218 54.9154 42.3218 54.4504C42.3218 53.9855 41.9448 53.6085 41.4798 53.6085C41.0149 53.6085 40.6379 53.9855 40.6379 54.4504C40.6379 54.9154 41.0149 55.2923 41.4798 55.2923Z" fill="#26B9D1"></path> <path d="M37.2235 59.1969C37.9985 59.1969 38.6267 58.5686 38.6267 57.7937C38.6267 57.0187 37.9985 56.3905 37.2235 56.3905C36.4485 56.3905 35.8203 57.0187 35.8203 57.7937C35.8203 58.5686 36.4485 59.1969 37.2235 59.1969Z" fill="#00A2DF"></path> <path d="M30.7221 63.1502C31.8587 63.1502 32.7801 62.2288 32.7801 61.0922C32.7801 59.9556 31.8587 59.0342 30.7221 59.0342C29.5855 59.0342 28.6641 59.9556 28.6641 61.0922C28.6641 62.2288 29.5855 63.1502 30.7221 63.1502Z" fill="#0069B4"></path> <path d="M21.7417 65.5823C23.2916 65.5823 24.548 64.3259 24.548 62.776C24.548 61.2261 23.2916 59.9696 21.7417 59.9696C20.1918 59.9696 18.9353 61.2261 18.9353 62.776C18.9353 64.3259 20.1918 65.5823 21.7417 65.5823Z" fill="#2F2A84"></path> <path d="M10.1178 64.6226C12.1843 64.6226 13.8596 62.9473 13.8596 60.8807C13.8596 58.8142 12.1843 57.1389 10.1178 57.1389C8.05125 57.1389 6.37598 58.8142 6.37598 60.8807C6.37598 62.9473 8.05125 64.6226 10.1178 64.6226Z" fill="#4740C2"></path> <path d="M29.7437 54.0501C29.3939 54.355 28.8607 54.3195 28.5557 53.9677C28.2508 53.616 28.2863 53.0847 28.638 52.7797C28.9879 52.4748 29.5211 52.5103 29.8261 52.862C30.131 53.2138 30.0955 53.7451 29.7437 54.0501Z" fill="#26B9D1"></path> <path d="M24.7952 53.4607C24.2115 53.9696 23.3246 53.9079 22.8158 53.3241C22.3069 52.7404 22.3686 51.8536 22.9523 51.3447C23.5361 50.8358 24.4229 50.8957 24.9318 51.4813C25.4406 52.065 25.3789 52.9518 24.7952 53.4607Z" fill="#00A2DF"></path> <path d="M18.4695 51.2194C17.6127 51.9659 16.3124 51.8761 15.5659 51.0192C14.8194 50.1623 14.9092 48.8621 15.7661 48.1156C16.623 47.3691 17.9232 47.4589 18.6697 48.3158C19.4144 49.1726 19.3264 50.4729 18.4695 51.2194Z" fill="#0069B4"></path> <path d="M11.7922 46.1174C10.6228 47.1352 8.85109 47.0136 7.83332 45.8443C6.81555 44.675 6.93716 42.9032 8.10648 41.8854C9.27579 40.8677 11.0475 40.9893 12.0653 42.1586C13.0812 43.3279 12.9596 45.0997 11.7922 46.1174Z" fill="#2F2A84"></path> <path d="M6.20012 36.8153C4.64165 38.1736 2.2787 38.0108 0.920415 36.4523C-0.435993 34.8939 -0.275095 32.5309 1.28337 31.1726C2.84184 29.8143 5.2048 29.979 6.56308 31.5356C7.91949 33.094 7.75859 35.457 6.20012 36.8153Z" fill="#4740C2"></path> <path d="M14.1402 34.9181C13.7361 34.688 13.5939 34.1753 13.824 33.7712C14.0542 33.3671 14.5668 33.2249 14.9709 33.455C15.375 33.6852 15.5172 34.1978 15.2871 34.6019C15.0588 35.006 14.5443 35.1482 14.1402 34.9181Z" fill="#26B9D1"></path> <path d="M13.0588 30.0519C12.3853 29.6684 12.1495 28.8134 12.5331 28.1398C12.9166 27.4663 13.7735 27.2306 14.447 27.6141C15.1205 27.9977 15.3563 28.8527 14.9727 29.5262C14.5892 30.1997 13.7323 30.4355 13.0588 30.0519Z" fill="#00A2DF"></path> <path d="M13.0812 23.3409C12.0934 22.7797 11.7473 21.5224 12.3104 20.5346C12.8717 19.5467 14.1271 19.2006 15.1168 19.7619C16.1046 20.3231 16.4507 21.5804 15.8895 22.5682C15.3263 23.5561 14.0691 23.9022 13.0812 23.3409Z" fill="#0069B4"></path> <path d="M15.6855 15.3503C14.3385 14.5851 13.867 12.8713 14.6322 11.5243C15.3974 10.1772 17.1112 9.70577 18.4582 10.471C19.8053 11.2362 20.2768 12.9499 19.5116 14.297C18.7464 15.6459 17.0326 16.1174 15.6855 15.3503Z" fill="#2F2A84"></path> <path d="M22.6154 6.99481C20.8175 5.9733 20.1907 3.68891 21.2122 1.89284C22.2337 0.0967688 24.5163 -0.531857 26.3123 0.48966C28.1084 1.51118 28.737 3.79556 27.7155 5.59163C26.694 7.3877 24.4115 8.01633 22.6154 6.99481Z" fill="#4740C2"></path> <path d="M20.6416 23.7993C20.5724 23.339 20.8867 22.9106 21.347 22.8395C21.8072 22.7703 22.2356 23.0846 22.3067 23.5448C22.3778 24.0051 22.0616 24.4335 21.6014 24.5046C21.1412 24.5738 20.7127 24.2595 20.6416 23.7993Z" fill="#26B9D1"></path> <path d="M23.7904 19.9359C23.6745 19.1707 24.2002 18.4542 24.9654 18.3382C25.7325 18.2222 26.4471 18.7479 26.565 19.5131C26.681 20.2783 26.1553 20.9949 25.3901 21.1109C24.623 21.2287 23.9064 20.7011 23.7904 19.9359Z" fill="#00A2DF"></path> <path d="M29.0718 15.7937C28.8997 14.6711 29.6724 13.6215 30.7949 13.4494C31.9175 13.2773 32.9671 14.05 33.1392 15.1725C33.3113 16.2969 32.5386 17.3465 31.4161 17.5168C30.2935 17.6889 29.244 16.9181 29.0718 15.7937Z" fill="#0069B4"></path> <path d="M36.9558 12.8881C36.722 11.3559 37.7753 9.92461 39.3057 9.69075C40.838 9.45689 42.2692 10.5083 42.5031 12.0406C42.7369 13.5729 41.6836 15.0041 40.1532 15.238C38.621 15.4719 37.1897 14.4204 36.9558 12.8881Z" fill="#2F2A84"></path> <path d="M47.8072 13.1482C47.4948 11.1052 48.8979 9.19687 50.941 8.8863C52.9821 8.57386 54.8923 9.97704 55.2029 12.0201C55.5153 14.0631 54.1122 15.9714 52.0691 16.282C50.028 16.5944 48.1196 15.1913 47.8072 13.1482Z" fill="#4740C2"></path> <path d="M33.0888 44.514H20.5537V27.4663H32.8381V30.8003H24.9167V34.2353H32.3124V37.3934H24.9167V41.1034H33.0888V44.514Z" fill="#ff9d5a"></path> <path d="M47.0532 44.514H43.1168V42.6843H43.0925C42.5163 44.1137 41.3881 44.7142 39.4573 44.7142H39.2815C36.0467 44.7142 35.0195 43.5617 35.0195 39.6497V32.4803H39.0064V39.2998C39.0064 41.2811 39.2571 41.7077 40.8362 41.7077H41.0364C42.6416 41.7077 43.0663 41.2063 43.0663 39.2755V32.4822H47.0532V44.514Z" fill="#ff9d5a"></path> <path d="M53.6463 44.514H49.6594V32.4803H53.521V34.6618H53.5958C54.0972 33.0323 54.9242 32.2802 56.8793 32.2802H57.0289C59.3096 32.2802 59.9363 33.283 59.9363 36.1155C59.9363 36.4411 59.9363 37.0435 59.8858 37.8199H56.5013V37.0435C56.5013 35.9153 56.2506 35.5131 55.2722 35.5131H55.072C53.9943 35.5131 53.6426 36.065 53.6426 37.9453V44.514H53.6463Z" fill="#ff9d5a"></path> <path d="M67.0327 44.7143C62.5444 44.7143 61.2666 43.4364 61.2666 39.1726V37.7938C61.2666 33.5823 62.5706 32.2783 67.0327 32.2783H67.6595C72.1216 32.2783 73.4013 33.5823 73.4013 37.7938V39.1726C73.4013 43.4345 72.1235 44.7143 67.6595 44.7143H67.0327ZM67.5341 41.7058C69.1132 41.7058 69.4649 41.1539 69.4649 39.1726V37.7938C69.4649 35.7638 69.1132 35.2362 67.5341 35.2362H67.1338C65.579 35.2362 65.203 35.7619 65.203 37.7938V39.1726C65.203 41.1539 65.579 41.7058 67.1338 41.7058H67.5341Z" fill="#ff9d5a"></path> <path d="M58.7819 61.4661H50.5032V48.8711H53.7436V58.9291H58.7819V61.4661Z" fill="white"></path> <path d="M62.9673 51.167H60.0225V48.8695H62.9673V51.167ZM62.9673 61.4663H60.0225V52.5758H62.9673V61.4663Z" fill="white"></path> <path d="M73.7848 61.4664H70.84V56.4093C70.84 55.0005 70.6548 54.6862 69.4687 54.6862H69.3209C68.1534 54.6862 67.8391 55.1128 67.8391 56.4262V61.4645H64.8943V52.5739H67.8017V53.9079H67.8204C68.2825 52.8714 69.0795 52.4261 70.4696 52.4261H70.5987C73.0814 52.4261 73.7848 53.2419 73.7848 56.0744V61.4664Z" fill="white"></path> <path d="M84.5069 61.4663H81.0812L78.9522 57.6141H78.6004V61.4663H75.6743V48.8713H78.6004V55.9097H78.9522L80.9709 52.5757H84.2487L81.4704 56.7254L84.5069 61.4663Z" fill="white"></path> <path d="M82.7391 50.6019V46.4672H81.1956V45.9135H84.9112V46.4672H83.3602V50.6019H82.7391Z" fill="white"></path> <path d="M85.5266 50.6019V45.9153H86.4602L87.5697 49.2343C87.6726 49.543 87.7474 49.775 87.7942 49.9284C87.8484 49.7581 87.9307 49.5074 88.043 49.1763L89.1655 45.9153H90V50.6019H89.4013V46.6786L88.0392 50.6019H87.4798L86.1234 46.6113V50.6019H85.5266Z" fill="white"></path> </svg> 